<svg width="37" height="37" fill="none" xmlns="http://www.w3.org/2000/svg"><g clip-path="url(#a)"><path d="M18.288.424a18.288 18.288 0 1 1 0 36.576 18.288 18.288 0 0 1 0-36.576ZM10.287 17.57a1.143 1.143 0 1 0 0 2.286H23.53l-4.908 4.906a1.144 1.144 0 0 0 1.618 1.618l6.858-6.858a1.142 1.142 0 0 0 0-1.618l-6.858-6.858a1.144 1.144 0 1 0-1.618 1.618l4.908 4.906H10.287Z" fill="#FF4848"/></g><defs><clipPath id="a"><path fill="#fff" transform="rotate(-90 18.5 18.5)" d="M0 0h36.576v36.576H0z"/></clipPath></defs></svg>